<svg xmlns="http://www.w3.org/2000/svg" width="823" height="480" viewBox="0 0 823 480" version="1.1"><path d="M 260.616 27.083 C 260.369 27.862, 259.902 30.394, 259.578 32.708 C 258.125 43.102, 248.398 67.669, 240.261 81.500 C 229.971 98.991, 214.644 119.218, 201.264 132.963 C 197.269 137.068, 194 140.829, 194 141.322 C 194 141.815, 195.688 141.918, 197.750 141.551 C 199.813 141.184, 207.634 140.643, 215.131 140.349 C 226.930 139.886, 229.821 140.096, 236.631 141.916 C 243.994 143.884, 252.559 147.070, 256 149.120 C 261.265 152.258, 261.355 152.252, 270.048 148.117 C 277.930 144.368, 281.280 143.253, 291.500 140.978 C 297.294 139.688, 313.840 139.807, 321.950 141.198 C 325.793 141.857, 329.264 142.069, 329.664 141.670 C 330.063 141.270, 327.459 137.919, 323.878 134.222 C 303.106 112.783, 287.534 90.961, 277 68.534 C 270.137 53.921, 268.802 50.321, 265.506 37.518 C 262.925 27.493, 261.471 24.389, 260.616 27.083 M 612.218 58.500 C 612.228 59.600, 612.580 61.850, 613 63.500 C 613.686 66.195, 613.765 66.246, 613.782 64 C 613.792 62.625, 613.440 60.375, 613 59 C 612.373 57.041, 612.203 56.933, 612.218 58.500 M 614.336 76 C 614.336 80.125, 614.513 81.813, 614.728 79.750 C 614.944 77.688, 614.944 74.313, 614.728 72.250 C 614.513 70.188, 614.336 71.875, 614.336 76 M 610.720 96.364 C 607.138 105.023, 599.794 116.129, 593.785 121.972 C 590.376 125.287, 587.177 128, 586.675 128 C 586.174 128, 584.306 129.238, 582.525 130.750 C 575.822 136.440, 574.279 137.418, 561.713 143.932 C 545.645 152.262, 526.121 157.342, 504.500 158.817 C 493.338 159.579, 474.386 158.689, 466 157.009 C 441.589 152.118, 435.191 150.029, 416 140.686 C 407.128 136.367, 404.287 134.352, 397.676 127.694 C 393.373 123.360, 390.095 119.571, 390.392 119.274 C 391.076 118.590, 387.533 115.813, 383.023 113.499 C 379.023 111.445, 370.494 111.130, 367.163 112.913 C 365.752 113.668, 363.269 113.863, 360.448 113.440 C 356.058 112.782, 350 114.294, 350 116.049 C 350 116.814, 351.552 118.146, 357.345 122.351 C 360.475 124.623, 370.362 147.326, 369.709 150.743 C 369.375 152.490, 369.568 152.774, 370.540 151.967 C 371.522 151.152, 372.620 153.358, 375.428 161.784 C 377.420 167.761, 380.781 176.038, 382.898 180.177 C 385.672 185.602, 386.491 188.158, 385.832 189.335 C 385.168 190.522, 385.275 190.832, 386.223 190.468 C 386.992 190.173, 388.342 191.482, 389.514 193.660 C 390.606 195.691, 391.950 197.836, 392.500 198.426 C 393.050 199.017, 395.366 202.007, 397.647 205.070 C 403.935 213.517, 419.476 228.765, 429 235.833 C 433.675 239.303, 438.183 242.672, 439.017 243.321 C 440.974 244.841, 461.259 255.055, 462.261 255.024 C 462.679 255.011, 464.929 255.848, 467.261 256.885 C 478.215 261.756, 497.719 265, 516.054 265 C 529.945 265, 538.851 263.743, 552 259.926 C 562.892 256.765, 565.817 255.619, 581 248.574 C 585.476 246.497, 594.346 240.013, 593.656 239.322 C 593.366 239.033, 590.963 239.468, 588.315 240.289 C 578.308 243.393, 568.365 244.500, 550.500 244.500 C 531.880 244.500, 527.341 243.861, 509.500 238.728 C 499.701 235.909, 485.933 229.335, 475.426 222.460 C 465.736 216.119, 443.555 195.009, 445.784 194.249 C 446.490 194.008, 447.615 194.245, 448.284 194.775 C 448.953 195.305, 452.650 196.309, 456.500 197.006 C 460.350 197.703, 465.719 198.887, 468.432 199.637 C 478.917 202.536, 511.723 200.067, 522.488 195.569 C 524.554 194.706, 526.886 194, 527.670 194 C 529.009 194, 547.138 185.431, 551.500 182.736 C 557.153 179.243, 566.277 171.829, 572.654 165.548 C 580.154 158.159, 592.126 142.805, 595.450 136.311 C 596.523 134.215, 597.933 131.825, 598.582 131 C 599.232 130.175, 600.095 128.375, 600.500 127 C 600.905 125.625, 601.797 123.825, 602.481 123 C 603.166 122.175, 604.510 119.250, 605.469 116.500 C 606.427 113.750, 607.593 110.600, 608.059 109.500 C 609.430 106.261, 613.172 92.838, 612.805 92.472 C 612.620 92.287, 611.681 94.038, 610.720 96.364 M 176.428 352 C 176.428 364.375, 176.571 369.438, 176.747 363.250 C 176.922 357.063, 176.922 346.938, 176.747 340.750 C 176.571 334.563, 176.428 339.625, 176.428 352 M 250.286 334.500 C 250.294 337.250, 250.488 338.256, 250.718 336.736 C 250.947 335.216, 250.941 332.966, 250.704 331.736 C 250.467 330.506, 250.279 331.750, 250.286 334.500 M 264.365 339.500 C 264.368 345, 264.536 347.122, 264.738 344.216 C 264.941 341.311, 264.939 336.811, 264.734 334.216 C 264.528 331.622, 264.363 334, 264.365 339.500 M 432.360 339 C 432.360 344.225, 432.529 346.363, 432.735 343.750 C 432.941 341.137, 432.941 336.863, 432.735 334.250 C 432.529 331.637, 432.360 333.775, 432.360 339 M 446.328 336.500 C 446.333 340.350, 446.513 341.802, 446.730 339.728 C 446.946 337.653, 446.943 334.503, 446.722 332.728 C 446.501 330.952, 446.324 332.650, 446.328 336.500 M 653.234 359.250 L 653 389 646.566 389 C 640.478 389, 640.109 388.865, 639.695 386.488 C 639.293 384.187, 639.267 384.208, 639.378 386.738 C 639.497 389.439, 639.650 389.507, 646.264 389.796 C 651.133 390.009, 653.168 389.726, 653.529 388.784 C 653.806 388.064, 653.905 374.431, 653.750 358.488 L 653.468 329.500 653.234 359.250 M 791.975 334.796 L 792.458 339.500 792.797 335.618 C 792.984 333.483, 792.767 331.367, 792.315 330.915 C 791.863 330.463, 791.710 332.210, 791.975 334.796 M 821.360 339 C 821.360 344.225, 821.529 346.363, 821.735 343.750 C 821.941 341.137, 821.941 336.863, 821.735 334.250 C 821.529 331.637, 821.360 333.775, 821.360 339 M 143.286 336.500 C 143.294 339.250, 143.488 340.256, 143.718 338.736 C 143.947 337.216, 143.941 334.966, 143.704 333.736 C 143.467 332.506, 143.279 333.750, 143.286 336.500 M 807.365 341.500 C 807.368 347, 807.536 349.122, 807.738 346.216 C 807.941 343.311, 807.939 338.811, 807.734 336.216 C 807.528 333.622, 807.363 336, 807.365 341.500 M 778.423 354.500 C 778.424 366.050, 778.570 370.638, 778.747 364.696 C 778.924 358.753, 778.923 349.303, 778.745 343.696 C 778.567 338.088, 778.422 342.950, 778.423 354.500 M 129.400 359.500 C 129.401 367.750, 129.556 370.992, 129.744 366.704 C 129.932 362.417, 129.931 355.667, 129.742 351.704 C 129.552 347.742, 129.399 351.250, 129.400 359.500 M 87.401 347.397 C 87.087 348.215, 87.042 349.697, 87.299 350.692 C 87.606 351.875, 87.808 351.549, 87.884 349.750 C 87.999 347.025, 88.064 347, 94.940 347 L 101.879 347 102.294 350.509 L 102.710 354.017 102.605 350.259 L 102.500 346.500 95.236 346.206 C 89.538 345.975, 87.848 346.232, 87.401 347.397 M 791.407 362 C 791.407 371.075, 791.559 374.788, 791.744 370.250 C 791.929 365.712, 791.929 358.288, 791.744 353.750 C 791.559 349.212, 791.407 352.925, 791.407 362 M 233.430 370 C 233.430 382.925, 233.573 388.212, 233.747 381.750 C 233.921 375.288, 233.921 364.712, 233.747 358.250 C 233.573 351.788, 233.430 357.075, 233.430 370 M 446.389 359.500 C 446.390 366.650, 446.550 369.444, 446.742 365.708 C 446.935 361.973, 446.934 356.123, 446.739 352.708 C 446.545 349.294, 446.387 352.350, 446.389 359.500 M 624.425 369 C 624.425 380.825, 624.569 385.663, 624.746 379.750 C 624.923 373.837, 624.923 364.163, 624.746 358.250 C 624.569 352.337, 624.425 357.175, 624.425 369 M 741.776 348.733 C 744.128 348.945, 747.728 348.942, 749.776 348.727 C 751.824 348.512, 749.900 348.339, 745.500 348.343 C 741.100 348.346, 739.424 348.522, 741.776 348.733 M 251.370 360 C 251.370 365.775, 251.535 368.137, 251.737 365.250 C 251.939 362.363, 251.939 357.637, 251.737 354.750 C 251.535 351.863, 251.370 354.225, 251.370 360 M 738.382 361.500 C 738.384 368.100, 738.546 370.670, 738.741 367.211 C 738.937 363.752, 738.936 358.352, 738.738 355.211 C 738.540 352.070, 738.380 354.900, 738.382 361.500 M 807.411 370 C 807.411 379.625, 807.561 383.563, 807.745 378.750 C 807.928 373.938, 807.928 366.063, 807.745 361.250 C 807.561 356.438, 807.411 360.375, 807.411 370 M 213.750 356.707 L 219 357.105 219 367.483 C 219 377.071, 218.847 377.895, 216.985 378.314 C 215.308 378.690, 215.350 378.744, 217.235 378.633 C 219.443 378.503, 219.500 378.224, 219.500 367.500 L 219.500 356.500 214 356.405 L 208.500 356.309 213.750 356.707 M 687 356.567 C 690.359 357.318, 697.778 357.449, 697.346 356.750 C 697.091 356.337, 694.321 356.052, 691.191 356.116 C 688.061 356.180, 686.175 356.383, 687 356.567 M 13.310 362.500 C 13.315 365.800, 13.502 367.029, 13.725 365.232 C 13.947 363.435, 13.943 360.735, 13.715 359.232 C 13.486 357.729, 13.304 359.200, 13.310 362.500 M 518.320 363 C 518.320 366.575, 518.502 368.038, 518.723 366.250 C 518.945 364.462, 518.945 361.538, 518.723 359.750 C 518.502 357.962, 518.320 359.425, 518.320 363 M 325.378 369 C 325.378 375.325, 325.541 377.913, 325.739 374.750 C 325.937 371.587, 325.937 366.413, 325.739 363.250 C 325.541 360.087, 325.378 362.675, 325.378 369 M 102.355 367.500 C 102.352 372.450, 102.521 374.601, 102.731 372.280 C 102.940 369.959, 102.943 365.909, 102.736 363.280 C 102.530 360.651, 102.358 362.550, 102.355 367.500 M 202.286 367.500 C 202.294 370.250, 202.488 371.256, 202.718 369.736 C 202.947 368.216, 202.941 365.966, 202.704 364.736 C 202.467 363.506, 202.279 364.750, 202.286 367.500 M 382.310 369.500 C 382.315 372.800, 382.502 374.029, 382.725 372.232 C 382.947 370.435, 382.943 367.735, 382.715 366.232 C 382.486 364.729, 382.304 366.200, 382.310 369.500 M 821.206 379.332 L 821 389.164 814.092 388.832 C 810.293 388.649, 807.394 388.837, 807.651 389.250 C 808.512 390.634, 821.019 390.113, 821.573 388.671 C 821.853 387.940, 821.932 383.327, 821.747 378.421 L 821.411 369.500 821.206 379.332 M 264.398 375.500 L 264.500 380.500 280.424 380.776 C 289.182 380.928, 296.698 380.703, 297.126 380.276 C 297.555 379.849, 290.527 379.633, 281.509 379.796 L 265.113 380.092 264.705 375.296 L 264.296 370.500 264.398 375.500 M 432.168 375.312 L 432 380.125 420.998 379.812 C 414.947 379.641, 409.997 379.837, 409.998 380.250 C 409.999 380.663, 414.964 381, 421.031 381 C 433.279 381, 433.414 380.923, 432.735 374.355 C 432.361 370.741, 432.326 370.801, 432.168 375.312 M 446.381 376.500 L 446.500 380.500 456 380.554 L 465.500 380.609 456.308 380.269 L 447.116 379.929 446.689 376.214 L 446.262 372.500 446.381 376.500 M 143.116 378.750 C 143.006 380.890, 143.329 380.991, 149.750 380.807 L 156.500 380.615 150.314 380.261 C 145.519 379.987, 144.028 379.525, 143.680 378.204 C 143.358 376.977, 143.199 377.130, 143.116 378.750 M 565 380 L 547.500 380.572 565.250 380.786 C 576.559 380.922, 583 380.637, 583 380 C 583 379.450, 582.888 379.096, 582.750 379.214 C 582.612 379.332, 574.625 379.686, 565 380 M 42.191 380.747 C 49.171 380.918, 60.871 380.919, 68.191 380.748 C 75.511 380.577, 69.800 380.436, 55.500 380.436 C 41.200 380.435, 35.211 380.575, 42.191 380.747 M 115.180 385.250 L 115.360 390.500 115.733 385.794 L 116.106 381.089 122.803 380.740 L 129.500 380.392 122.250 380.196 L 115 380 115.180 385.250 M 250.300 385 C 250.300 388.025, 250.487 389.262, 250.716 387.750 C 250.945 386.238, 250.945 383.762, 250.716 382.250 C 250.487 380.738, 250.300 381.975, 250.300 385 M 344.250 380.739 C 347.413 380.937, 352.587 380.937, 355.750 380.739 C 358.913 380.541, 356.325 380.378, 350 380.378 C 343.675 380.378, 341.087 380.541, 344.250 380.739 M 756.784 380.738 C 759.689 380.941, 764.189 380.939, 766.784 380.734 C 769.378 380.528, 767 380.363, 761.500 380.365 C 756 380.368, 753.878 380.536, 756.784 380.738 M 209.728 388.722 C 211.503 388.943, 214.653 388.946, 216.728 388.730 C 218.802 388.513, 217.350 388.333, 213.500 388.328 C 209.650 388.324, 207.952 388.501, 209.728 388.722 M 691.188 388.737 C 696.490 389.072, 696.904 389.280, 697.288 391.798 C 697.663 394.254, 697.714 394.204, 697.850 391.250 L 698 388 691.750 388.189 L 685.500 388.378 691.188 388.737 M 203.402 399.395 C 203.108 400.162, 203.009 402.524, 203.183 404.645 L 203.500 408.500 210.500 408.566 L 217.500 408.631 210.750 408.272 L 204 407.912 204 403.517 C 204 399.173, 204.045 399.116, 207.750 398.728 L 211.500 398.336 207.719 398.168 C 205.282 398.060, 203.747 398.496, 203.402 399.395 M 681.398 399.405 C 681.102 400.177, 681.044 402.315, 681.270 404.155 C 681.645 407.218, 681.693 407.147, 681.840 403.313 C 681.990 399.380, 682.197 399.102, 685.250 398.723 L 688.500 398.320 685.219 398.160 C 683.203 398.062, 681.729 398.542, 681.398 399.405 M 684.776 408.733 C 687.128 408.945, 690.728 408.942, 692.776 408.727 C 694.824 408.512, 692.900 408.339, 688.500 408.343 C 684.100 408.346, 682.424 408.522, 684.776 408.733 M 725.250 408.728 C 727.313 408.944, 730.688 408.944, 732.750 408.728 C 734.813 408.513, 733.125 408.336, 729 408.336 C 724.875 408.336, 723.188 408.513, 725.250 408.728 M 363.264 428.718 C 364.784 428.947, 367.034 428.941, 368.264 428.704 C 369.494 428.467, 368.250 428.279, 365.500 428.286 C 362.750 428.294, 361.744 428.488, 363.264 428.718 M 410.264 428.718 C 411.784 428.947, 414.034 428.941, 415.264 428.704 C 416.494 428.467, 415.250 428.279, 412.500 428.286 C 409.750 428.294, 408.744 428.488, 410.264 428.718 M 640.250 428.716 C 641.763 428.945, 644.237 428.945, 645.750 428.716 C 647.263 428.487, 646.025 428.300, 643 428.300 C 639.975 428.300, 638.737 428.487, 640.250 428.716 M 799.264 428.718 C 800.784 428.947, 803.034 428.941, 804.264 428.704 C 805.494 428.467, 804.250 428.279, 801.500 428.286 C 798.750 428.294, 797.744 428.488, 799.264 428.718 M 287.468 449.417 C 287.495 467.144, 287.729 470.397, 289 470.743 C 290.088 471.040, 290.163 470.913, 289.271 470.280 C 288.386 469.652, 287.958 463.691, 287.739 448.954 L 287.435 428.500 287.468 449.417 M 441.229 449.750 L 441 471 446.500 471 C 449.525 471, 452 470.663, 452.001 470.250 C 452.001 469.837, 449.760 469.655, 447.021 469.845 L 442.041 470.190 441.749 449.345 L 441.457 428.500 441.229 449.750 M 666.175 433.250 L 666 438 673.475 438 L 680.950 438 681.225 454.250 L 681.500 470.500 685 470.589 C 688.436 470.677, 688.441 470.672, 685.274 470.281 L 682.049 469.882 681.774 453.691 L 681.500 437.500 674.305 437.207 L 667.111 436.915 666.730 432.707 L 666.349 428.500 666.175 433.250 M 706.975 433.204 C 706.710 435.790, 706.863 437.537, 707.315 437.085 C 707.767 436.633, 707.984 434.517, 707.797 432.382 L 707.458 428.500 706.975 433.204 M 528.150 433.208 L 528 436.916 520.250 437.257 L 512.500 437.598 520.281 437.799 C 528.773 438.018, 529.505 437.545, 528.724 432.334 C 528.363 429.924, 528.277 430.054, 528.150 433.208 M 814.633 431.918 C 816.357 432.969, 818.494 434.867, 819.383 436.137 C 820.272 437.406, 821 437.942, 821 437.326 C 821 435.898, 814.325 429.999, 812.715 430.004 C 812.047 430.006, 812.910 430.867, 814.633 431.918 M 712.286 438.500 C 712.294 441.250, 712.488 442.256, 712.718 440.736 C 712.947 439.216, 712.941 436.966, 712.704 435.736 C 712.467 434.506, 712.279 435.750, 712.286 438.500 M 101.728 437.722 C 103.503 437.943, 106.653 437.946, 108.728 437.730 C 110.802 437.513, 109.350 437.333, 105.500 437.328 C 101.650 437.324, 99.952 437.501, 101.728 437.722 M 298.398 438.405 C 298.102 439.177, 298.044 441.315, 298.270 443.155 C 298.642 446.193, 298.695 446.113, 298.840 442.280 L 299 438.060 311.750 437.747 L 324.500 437.435 311.719 437.217 C 301.517 437.044, 298.828 437.284, 298.398 438.405 M 490.776 437.733 C 493.128 437.945, 496.728 437.942, 498.776 437.727 C 500.824 437.512, 498.900 437.339, 494.500 437.343 C 490.100 437.346, 488.424 437.522, 490.776 437.733 M 546.728 437.722 C 548.503 437.943, 551.653 437.946, 553.728 437.730 C 555.802 437.513, 554.350 437.333, 550.500 437.328 C 546.650 437.324, 544.952 437.501, 546.728 437.722 M 692.394 438.416 C 692.095 439.194, 692.042 441.107, 692.276 442.666 C 692.637 445.080, 692.723 444.952, 692.850 441.798 L 693 438.095 699.250 437.740 L 705.500 437.385 699.219 437.193 C 694.589 437.051, 692.794 437.372, 692.394 438.416 M 810.149 440.796 C 812.245 443.807, 812.835 444.066, 816.972 443.796 C 820.876 443.541, 821.518 443.188, 821.633 441.235 C 821.744 439.350, 821.690 439.308, 821.314 440.985 C 820.579 444.255, 813.628 443.788, 810.379 440.250 L 807.854 437.500 810.149 440.796 M 772.370 450 C 772.370 455.775, 772.535 458.137, 772.737 455.250 C 772.939 452.363, 772.939 447.637, 772.737 444.750 C 772.535 441.863, 772.370 444.225, 772.370 450 M 722.355 449.500 C 722.352 454.450, 722.521 456.601, 722.731 454.280 C 722.940 451.959, 722.943 447.909, 722.736 445.280 C 722.530 442.651, 722.358 444.550, 722.355 449.500 M 88.328 449.500 C 88.333 453.350, 88.513 454.802, 88.730 452.728 C 88.946 450.653, 88.943 447.503, 88.722 445.728 C 88.501 443.952, 88.324 445.650, 88.328 449.500 M 620.300 450 C 620.300 453.025, 620.487 454.262, 620.716 452.750 C 620.945 451.238, 620.945 448.762, 620.716 447.250 C 620.487 445.738, 620.300 446.975, 620.300 450 M 789.286 449.500 C 789.294 452.250, 789.488 453.256, 789.718 451.736 C 789.947 450.216, 789.941 447.966, 789.704 446.736 C 789.467 445.506, 789.279 446.750, 789.286 449.500 M 320.286 450.500 C 320.294 453.250, 320.488 454.256, 320.718 452.736 C 320.947 451.216, 320.941 448.966, 320.704 447.736 C 320.467 446.506, 320.279 447.750, 320.286 450.500 M 741.193 452.750 L 741.385 459.500 741.741 453.221 C 741.983 448.959, 742.452 447.161, 743.203 447.625 C 743.871 448.038, 744.026 447.852, 743.595 447.155 C 741.898 444.408, 741.013 446.468, 741.193 452.750 M 800.168 452.250 L 800.336 456.500 800.726 452.786 L 801.116 449.071 810.808 448.745 L 820.500 448.419 810.250 448.209 L 800 448 800.168 452.250 M 353.039 454.327 C 352.994 456.439, 358.209 462.019, 360.173 461.960 C 360.903 461.938, 360.227 461.230, 358.671 460.387 C 357.115 459.543, 355.220 457.424, 354.460 455.677 C 353.581 453.656, 353.064 453.165, 353.039 454.327 M 298.667 454.667 C 298.300 455.033, 298 458.605, 298 462.603 C 298 469.769, 297.961 469.879, 295.250 470.280 C 292.655 470.663, 292.670 470.681, 295.500 470.593 L 298.500 470.500 299 462.248 C 299.275 457.709, 299.462 453.997, 299.417 453.998 C 299.371 453.999, 299.033 454.300, 298.667 454.667 M 375.317 455.750 C 374.975 456.712, 373.977 458.400, 373.098 459.500 C 371.514 461.483, 371.520 461.483, 373.750 459.595 C 374.988 458.547, 376 457.085, 376 456.345 C 376 455.421, 377.386 455, 380.434 455 C 384.503 455, 384.901 455.226, 385.284 457.750 C 385.671 460.310, 385.711 460.275, 385.850 457.250 L 386 454 380.969 454 C 377.080 454, 375.796 454.397, 375.317 455.750 M 656.250 454.716 C 657.763 454.945, 660.237 454.945, 661.750 454.716 C 663.263 454.487, 662.025 454.300, 659 454.300 C 655.975 454.300, 654.737 454.487, 656.250 454.716 M 692.199 461.667 C 692.066 467.105, 691.582 470.002, 690.750 470.338 C 689.771 470.733, 689.778 470.859, 690.781 470.921 C 692.728 471.041, 693.127 469.007, 692.746 460.906 L 692.397 453.500 692.199 461.667 M 101.768 455.725 C 103.565 455.947, 106.265 455.943, 107.768 455.715 C 109.271 455.486, 107.800 455.304, 104.500 455.310 C 101.200 455.315, 99.971 455.502, 101.768 455.725 M 543.409 456.377 C 543.118 457.134, 543.051 459.947, 543.260 462.627 L 543.640 467.500 543.820 461.800 L 544 456.100 549.750 455.739 L 555.500 455.378 549.719 455.189 C 545.595 455.054, 543.786 455.395, 543.409 456.377 M 712.286 461.500 C 712.294 464.250, 712.488 465.256, 712.718 463.736 C 712.947 462.216, 712.941 459.966, 712.704 458.736 C 712.467 457.506, 712.279 458.750, 712.286 461.500 M 116.418 464.745 L 116.500 470.500 122.255 470.582 L 128.010 470.664 122.553 470.284 L 117.097 469.903 116.716 464.447 L 116.336 458.990 116.418 464.745 M 127.286 463.500 C 127.294 466.250, 127.488 467.256, 127.718 465.736 C 127.947 464.216, 127.941 461.966, 127.704 460.736 C 127.467 459.506, 127.279 460.750, 127.286 463.500 M 13.954 462.086 C 13.340 463.233, 13.058 464.392, 13.328 464.661 C 13.597 464.930, 14.114 464.217, 14.476 463.075 C 15.069 461.207, 15.918 461, 23 461 C 30.082 461, 30.931 461.207, 31.524 463.075 C 31.886 464.217, 32.403 464.930, 32.672 464.661 C 32.942 464.392, 32.660 463.233, 32.046 462.086 C 31.058 460.241, 30.015 460, 23 460 C 15.985 460, 14.942 460.241, 13.954 462.086 M 146 460.620 C 151.804 461.364, 161.004 461.443, 161.002 460.750 C 161.001 460.337, 157.063 460.067, 152.250 460.150 C 147.438 460.232, 144.625 460.444, 146 460.620 M 252.483 461.027 C 252.107 461.636, 252.070 462.403, 252.400 462.733 C 252.730 463.063, 253 462.808, 253 462.167 C 253 460.679, 268.607 460.543, 269.342 462.025 C 269.621 462.589, 269.735 462.476, 269.595 461.775 C 269.259 460.103, 253.481 459.413, 252.483 461.027 M 591 460.620 C 596.791 461.362, 605.780 461.444, 605.348 460.750 C 605.092 460.337, 601.196 460.067, 596.691 460.150 C 592.186 460.232, 589.625 460.444, 591 460.620 M 71.848 461.747 L 83.196 462.067 82.841 466.534 C 82.645 468.990, 82.826 471, 83.243 471 C 83.659 471, 84 468.750, 84 466 L 84 461 72.250 461.214 L 60.500 461.428 71.848 461.747 M 783.502 463.836 C 785.151 465.671, 787.400 467.638, 788.500 468.208 C 789.600 468.778, 790.050 468.851, 789.500 468.370 C 788.950 467.888, 786.701 465.921, 784.502 463.997 L 780.504 460.500 783.502 463.836 M 481.975 466.204 C 481.710 468.790, 481.863 470.537, 482.315 470.085 C 482.767 469.633, 482.984 467.517, 482.797 465.382 L 482.458 461.500 481.975 466.204 M 49.404 468 L 49.500 470.500 63.500 470.541 L 77.500 470.582 63.814 470.264 C 50.577 469.956, 50.114 469.873, 49.717 467.723 C 49.369 465.838, 49.322 465.881, 49.404 468 M 271.068 466.559 C 270.918 468.908, 273.640 471.185, 276.056 470.731 L 278.500 470.272 275.903 470.136 C 274.285 470.051, 272.897 469.152, 272.220 467.750 C 271.624 466.512, 271.105 465.976, 271.068 466.559 M 731.252 469 C 731.544 470.082, 733.167 470.528, 737.079 470.600 L 742.500 470.700 737.519 470.286 C 734.780 470.058, 732.158 469.338, 731.693 468.686 C 731.106 467.862, 730.971 467.958, 731.252 469 M 772 468.833 C 772 469.513, 770.225 470.070, 767.750 470.168 L 763.500 470.336 767.382 470.736 C 771.112 471.121, 774.106 469.773, 772.683 468.350 C 772.308 467.974, 772 468.192, 772 468.833 M 6 470 L 0.500 470.674 5.691 470.837 C 8.546 470.927, 11.160 470.550, 11.500 470 C 11.840 469.450, 11.979 469.073, 11.809 469.163 C 11.639 469.253, 9.025 469.629, 6 470 M 186.912 470.314 C 187.361 470.762, 189.702 470.979, 192.114 470.796 L 196.500 470.463 191.298 469.982 C 188.437 469.717, 186.464 469.866, 186.912 470.314 M 532.915 470.315 C 533.367 470.767, 535.483 470.984, 537.618 470.797 L 541.500 470.458 536.796 469.975 C 534.210 469.710, 532.463 469.863, 532.915 470.315 M 574 470.250 C 574 470.663, 576.448 471, 579.441 471 C 582.434 471, 585.091 470.663, 585.345 470.250 C 585.600 469.837, 583.152 469.500, 579.905 469.500 C 576.657 469.500, 574 469.837, 574 470.250 M 614.500 470 L 608.500 470.664 614.191 470.832 C 617.321 470.924, 620.160 470.550, 620.500 470 C 620.840 469.450, 620.979 469.076, 620.809 469.168 C 620.639 469.261, 617.800 469.635, 614.500 470 M 220.264 470.718 C 221.784 470.947, 224.034 470.941, 225.264 470.704 C 226.494 470.467, 225.250 470.279, 222.500 470.286 C 219.750 470.294, 218.744 470.488, 220.264 470.718" stroke="none" fill="#c39d30" fill-rule="evenodd"/><path d="M 521 0.967 C 513.224 2.120, 508.801 3.005, 507.838 3.600 C 507.381 3.882, 506.141 4.280, 505.082 4.484 C 500.931 5.284, 481.816 15.344, 474.364 20.652 C 447.485 39.795, 423.451 66.589, 400.088 103.461 L 390.057 119.291 394.147 124.175 C 396.396 126.862, 400.095 130.557, 402.368 132.388 C 406.806 135.962, 415.913 141.482, 416.365 140.871 C 416.517 140.667, 419.299 136.225, 422.548 131 C 444.667 95.428, 460.876 75.028, 479.357 59.500 C 489.602 50.893, 510.282 40.643, 519.261 39.721 C 521.083 39.535, 523.109 39.051, 523.764 38.646 C 524.419 38.241, 530.683 37.979, 537.684 38.064 C 556.605 38.293, 567.129 42.069, 579.178 52.949 C 591.026 63.648, 596.976 76.373, 597.519 92.173 C 597.981 105.641, 595.160 115.647, 588.335 124.750 C 584.543 129.807, 586.981 128.590, 593.670 122.085 C 600.124 115.808, 604.953 108.598, 610.169 97.453 C 612.978 91.450, 613.419 89.336, 613.802 80.033 C 614.854 54.502, 604.401 32.018, 583.930 15.779 C 577.509 10.686, 560.545 3.289, 553.195 2.377 C 551.285 2.140, 549.330 1.704, 548.850 1.407 C 547.303 0.451, 526.676 0.125, 521 0.967 M 368.755 154.750 C 363.879 163.149, 347.982 186.101, 340.834 195.065 C 330.879 207.547, 323.446 214.675, 312.928 221.826 C 296.952 232.687, 282.509 234.885, 266.435 228.901 C 257.012 225.392, 251.691 221.343, 245.543 213 C 240.799 206.562, 238.876 200.005, 238.804 190.017 C 238.735 180.424, 239.848 175.492, 243.520 169.107 C 244.910 166.690, 245.880 164.547, 245.676 164.343 C 244.847 163.514, 233.618 178.812, 230.567 184.929 C 226.008 194.067, 224.683 199.377, 224.683 208.500 C 224.683 214.292, 224.907 216.037, 226.482 222.500 C 229.665 235.561, 241.423 250.680, 253.588 257.354 C 255.740 258.534, 257.831 259.950, 258.235 260.500 C 258.639 261.050, 258.976 261.107, 258.985 260.628 C 258.993 260.148, 259.563 260.196, 260.250 260.735 C 261.392 261.631, 268.223 263.516, 278.500 265.773 C 289.328 268.150, 309.818 263.056, 324.241 254.399 C 327.684 252.333, 331.686 249.711, 333.136 248.571 C 334.586 247.432, 337.511 245.167, 339.636 243.538 C 350.427 235.265, 376.068 205.448, 384.949 190.844 L 386.798 187.803 382.924 180.227 C 380.793 176.061, 377.426 167.780, 375.442 161.826 C 373.458 155.872, 371.632 151, 371.384 151 C 371.136 151, 369.953 152.688, 368.755 154.750 M 308 329.294 C 305.972 330.320, 305.500 331.301, 305.500 334.491 C 305.500 337.690, 305.987 338.697, 308.113 339.890 C 313.315 342.810, 319.359 337.856, 317.549 332.156 C 317.089 330.706, 312.184 327.783, 310.601 328.015 C 310.545 328.023, 309.375 328.599, 308 329.294 M 327 329.752 C 322.417 332.041, 321.907 335.257, 325.586 338.667 C 327.806 340.725, 328.995 341.100, 331.833 340.640 C 335.756 340.003, 336.969 338.671, 336.969 335 C 336.969 331.945, 336.158 330.646, 333.316 329.150 C 330.613 327.727, 331.156 327.676, 327 329.752 M 129.665 330.669 C 129.252 331.082, 129.221 339.091, 129.597 348.468 C 129.973 357.844, 129.954 369, 129.555 373.258 L 128.829 381 122.415 381 L 116 381 116 385.579 L 116 390.159 139.750 389.829 C 167.272 389.448, 169.566 388.852, 173.710 381.015 C 175.908 376.860, 176 375.742, 176 353.343 L 176 330 169.250 330 L 162.500 329.999 162.844 352.906 C 163.178 375.178, 163.128 375.872, 161.057 377.943 C 159.886 379.114, 158.525 379.824, 158.033 379.520 C 157.541 379.216, 156.856 379.425, 156.510 379.984 C 156.165 380.543, 152.984 381, 149.441 381 L 143 381 142.931 375.750 C 142.697 358.011, 142.718 346.463, 142.997 339 L 143.316 330.500 136.865 330.209 C 133.318 330.049, 130.077 330.256, 129.665 330.669 M 251.333 360.037 L 251.333 390.074 310.417 389.787 C 363.532 389.529, 369.831 389.330, 372.778 387.813 C 375.853 386.230, 376.286 386.230, 379.778 387.813 C 383.041 389.292, 388.654 389.538, 425.302 389.810 C 472.553 390.161, 476.111 389.822, 481.465 384.469 C 486.344 379.590, 487.182 374.264, 486.812 350.500 L 486.500 330.500 479.750 330.204 L 473 329.909 472.877 332.704 C 472.810 334.242, 472.848 344.500, 472.962 355.500 C 473.160 374.538, 473.070 375.606, 471.089 377.704 C 468.475 380.472, 464.626 381.192, 454.500 380.805 L 446.500 380.500 446.320 362 C 446.222 351.825, 446.109 340.462, 446.070 336.750 L 446 330 439.517 330 L 433.034 330 432.767 355.250 L 432.500 380.500 421.250 380.783 C 410.986 381.041, 407.954 380.383, 410.930 378.543 C 412.664 377.471, 413.317 366.988, 411.993 361.469 C 409.718 351.986, 402.131 346.662, 391 346.737 C 381.485 346.801, 375.028 350.177, 371.548 356.908 C 369.366 361.127, 368.902 363.194, 368.525 370.364 C 368.039 379.619, 366.736 380.421, 351.498 380.852 L 339.051 381.204 338.775 364.852 L 338.500 348.500 324 348.578 C 312.099 348.642, 308.884 348.978, 306.060 350.452 C 297.025 355.169, 292.883 366.317, 296.449 376.318 C 297.489 379.233, 297.528 380.244, 296.613 380.595 C 295.955 380.848, 288.460 380.930, 279.958 380.777 L 264.500 380.500 264.700 374.500 C 264.810 371.200, 264.648 359.837, 264.341 349.250 L 263.781 330 257.557 330 L 251.333 330 251.333 360.037 M 601.481 332.193 C 598.459 334.570, 598.381 335.943, 601.073 339.365 C 603.484 342.430, 608.873 342.984, 611.429 340.429 C 613.421 338.436, 613.462 333.628, 611.500 332 C 609.046 329.963, 604.198 330.056, 601.481 332.193 M 639.981 332.500 C 639.971 333.875, 639.963 346.025, 639.963 359.500 C 639.963 372.975, 639.971 385.125, 639.981 386.500 C 639.999 388.908, 640.238 389, 646.500 389 L 653 389 653 359.500 L 653 330 646.500 330 C 640.238 330, 639.999 330.092, 639.981 332.500 M 778.931 330.702 C 778.892 331.141, 778.921 341.229, 778.994 353.121 C 779.126 374.735, 779.126 374.743, 776.666 377.601 C 774.277 380.380, 773.885 380.472, 762.945 380.847 L 751.683 381.232 752.282 365.116 L 752.882 349 745.691 349.004 L 738.500 349.008 738.340 372.128 C 738.147 400.149, 738.962 398.417, 725.750 398.871 L 722 399 722 403.597 L 722 408.193 731.250 407.830 C 736.727 407.615, 741.709 406.862, 743.463 405.983 C 747.220 404.102, 750.858 398.738, 751.624 393.952 L 752.216 390.245 766.511 389.815 C 780.243 389.402, 780.948 389.277, 784.404 386.641 C 790.488 382, 790.704 380.971, 791.121 354.500 L 791.500 330.500 785.250 330.202 C 781.813 330.039, 778.969 330.264, 778.931 330.702 M 807.984 330.500 C 807.975 330.775, 807.959 343.938, 807.948 359.750 L 807.929 388.500 814.464 388.796 L 821 389.091 821 359.546 L 821 330 814.500 330 C 810.925 330, 807.993 330.225, 807.984 330.500 M 40.091 338.099 C 37.525 339.115, 35.084 341.776, 35.032 343.614 C 35.014 344.226, 36.090 345.818, 37.423 347.150 C 41.794 351.522, 49 349.021, 49 343.132 C 49 338.715, 44.688 336.279, 40.091 338.099 M 54.898 338.357 C 51.634 339.975, 51.120 345.120, 53.941 347.941 C 58.959 352.959, 67.147 347.589, 64.789 340.826 C 64.248 339.272, 63.511 337.969, 63.152 337.931 C 62.793 337.893, 61.329 337.706, 59.898 337.515 C 58.467 337.324, 56.217 337.703, 54.898 338.357 M 203.707 347.612 C 193.259 350.824, 187.602 360.950, 189.947 372.246 C 192.169 382.948, 199.619 388, 213.178 388 L 220 388 220 391.345 C 220 393.450, 219.238 395.379, 217.946 396.549 C 215.991 398.318, 214.828 398.570, 207.250 398.871 C 204.077 398.997, 204 399.108, 204 403.562 L 204 408.124 212.750 407.919 C 222.013 407.703, 225.375 406.748, 228.304 403.500 C 232.642 398.691, 233 396.180, 233 370.532 L 233 346 220.750 346.070 C 212.986 346.114, 206.745 346.679, 203.707 347.612 M 684.500 346.657 C 676.998 348.364, 669.564 354.156, 668.467 359.148 C 668.126 360.704, 667.431 362.234, 666.923 362.548 C 665.678 363.317, 665.743 371.723, 667 372.500 C 667.550 372.840, 668 373.776, 668 374.580 C 668 377.403, 673.077 383.675, 677.268 386.030 C 679.595 387.339, 681.612 388.317, 681.750 388.204 C 681.888 388.092, 685.600 388, 690 388 L 698 388 698 390.889 C 698 396.589, 694.721 398.590, 684.851 398.913 C 682.442 398.992, 682.169 399.413, 681.840 403.545 L 681.478 408.091 690.489 407.915 C 698.137 407.766, 700.079 407.371, 703.328 405.306 C 709.787 401.199, 710.403 398.552, 710.810 373.154 C 711.007 360.864, 710.908 349.771, 710.590 348.504 C 710.027 346.261, 709.696 346.199, 698.256 346.201 C 691.790 346.201, 685.600 346.407, 684.500 346.657 M 87.945 349.750 C 87.914 351.262, 87.935 357.675, 87.991 364 C 88.094 375.713, 87.304 378.742, 83.973 379.405 C 83.163 379.566, 81.781 380.013, 80.901 380.398 C 79.030 381.217, 29.917 380.648, 25.500 379.756 C 16.545 377.947, 13.992 374.614, 13.212 363.714 L 12.725 356.912 6.612 357.206 L 0.500 357.500 0.762 363.500 C 1.357 377.119, 5.622 383.736, 16.353 387.689 C 21.888 389.728, 23.693 389.818, 55.826 389.663 C 87.914 389.508, 89.688 389.401, 93.500 387.402 C 99.797 384.101, 101.333 380.448, 102.066 367.035 C 102.413 360.691, 102.482 353.587, 102.218 351.250 L 101.740 347 94.870 347 C 88.056 347, 88 347.022, 87.945 349.750 M 593.252 349.539 C 588.869 351.387, 584.060 355.936, 582.331 359.870 C 580.285 364.522, 579.969 372.592, 581.672 376.718 C 582.402 378.488, 583 380.222, 583 380.572 C 583 380.922, 574.112 381.025, 563.250 380.801 C 536.004 380.238, 533.784 379.091, 531.681 364.493 L 530.602 357 524.801 357 L 519 357 519 362.818 C 519 375.522, 524.233 383.899, 534.500 387.627 C 538.970 389.251, 543.975 389.480, 581.750 389.790 L 624 390.136 624 368.993 L 624 347.851 610.002 348.115 C 602.271 348.261, 594.771 348.899, 593.252 349.539 M 207.302 356.989 C 202.503 358.972, 200.484 368.168, 203.548 374.093 C 205.370 377.616, 207.705 378.561, 214.500 378.526 L 219.500 378.500 219.500 367.500 L 219.500 356.500 214.500 356.290 C 211.750 356.175, 208.511 356.489, 207.302 356.989 M 385.046 358.800 C 382.265 361.582, 382 362.421, 382 368.469 C 382 376.704, 384.510 380, 390.780 380 C 396.731 380, 399.140 376.831, 399.512 368.515 C 399.867 360.568, 397.793 357.298, 391.796 356.343 C 388.596 355.834, 387.679 356.168, 385.046 358.800 M 683.725 358.001 C 680.299 360.696, 678.721 366.251, 680.016 371.060 C 681.529 376.677, 683.975 378.279, 691.061 378.294 L 697.154 378.306 697.158 367.403 L 697.162 356.500 691.772 356.206 C 687.522 355.974, 685.820 356.353, 683.725 358.001 M 310.396 361.306 C 306.948 365.404, 307.038 372.703, 310.589 376.923 C 312.984 379.770, 313.658 380, 319.589 380 L 326 380 325.999 369.250 L 325.998 358.500 319.395 358.479 C 313.352 358.460, 312.589 358.700, 310.396 361.306 M 597.656 359.108 C 593.183 361.768, 592.110 371.989, 595.786 376.918 C 597.463 379.168, 598.565 379.540, 604.355 379.814 L 611 380.128 611 369.228 L 611 358.328 605.250 358.170 C 602.087 358.083, 598.670 358.505, 597.656 359.108 M 17.535 432.196 C 16.110 435.366, 2.487 466.111, 1.312 468.807 C 0.875 469.809, 1.966 470.042, 5.992 469.807 C 11.219 469.501, 11.249 469.480, 12.897 465 L 14.551 460.500 22.814 460.209 L 31.077 459.918 33.137 464.875 C 35.404 470.330, 37.636 471.534, 43.460 470.441 C 46.750 469.824, 46.778 469.775, 45.306 467.157 C 44.484 465.696, 40.350 456.625, 36.119 447 L 28.427 429.500 23.723 429.196 C 19.253 428.906, 18.946 429.055, 17.535 432.196 M 50 449.448 L 50 470 63.750 470.119 C 71.313 470.184, 78.625 470.297, 80 470.369 C 82.251 470.487, 82.531 470.077, 82.807 466.250 L 83.115 462 72.057 462 C 62.233 462, 60.988 461.805, 60.895 460.250 C 60.838 459.288, 60.683 451.975, 60.552 444 L 60.313 429.500 55.156 429.198 L 50 428.895 50 449.448 M 88.851 429.166 C 88.769 429.349, 88.606 438.613, 88.489 449.750 C 88.299 467.753, 88.454 470.014, 89.888 470.128 C 90.774 470.198, 92.622 470.367, 93.994 470.503 C 98.567 470.957, 99 470.242, 99 462.249 L 99 454.711 106.719 455.295 C 115.888 455.989, 117 457.005, 117 464.691 L 117 470 122.405 470 L 127.810 470 127.367 465.750 C 126.377 456.254, 126.016 454.675, 124.432 452.925 C 122.887 451.218, 122.917 450.920, 124.889 448.414 C 127.688 444.855, 127.730 438.198, 124.975 434.696 C 121.417 430.172, 118.505 429.424, 103.250 429.117 C 95.412 428.960, 88.933 428.982, 88.851 429.166 M 147.057 431.250 C 144.876 436.743, 136.886 455.185, 133.626 462.250 L 130.050 470 133.275 470.077 C 135.049 470.119, 137.263 470.300, 138.194 470.480 C 139.424 470.717, 140.503 469.325, 142.128 465.403 L 144.368 460 152.486 460 L 160.605 460 162.403 465 C 163.542 468.168, 164.805 470.026, 165.850 470.072 C 166.758 470.112, 169.208 470.225, 171.296 470.322 C 174.756 470.484, 175.043 470.303, 174.533 468.274 C 174.001 466.156, 165.864 447.052, 160.254 434.750 L 157.632 429 152.791 429 C 148.703 429, 147.812 429.350, 147.057 431.250 M 172.032 429.698 C 172.049 430.139, 175.357 439.275, 179.383 450 L 186.702 469.500 191.862 470.029 L 197.022 470.558 198.914 465.529 C 205.081 449.142, 206.169 446.431, 206.849 445.751 C 207.262 445.338, 209.662 450.737, 212.182 457.750 C 214.702 464.762, 217.042 470.387, 217.382 470.250 C 217.722 470.113, 220.187 470, 222.859 470 L 227.719 470 229.873 463.437 C 231.058 459.828, 233.104 454.316, 234.420 451.187 C 237.232 444.505, 242 431.035, 242 429.773 C 242 429.291, 239.680 429.031, 236.845 429.198 L 231.690 429.500 227.326 442 C 224.926 448.875, 222.706 455.175, 222.393 456 C 221.735 457.735, 220.847 455.664, 215.405 439.701 L 211.723 428.902 207.224 429.201 L 202.724 429.500 198.294 442.500 C 195.857 449.650, 193.496 455.876, 193.047 456.335 C 192.215 457.185, 191.589 455.716, 185.660 439 L 182.291 429.500 177.145 429.198 C 174.315 429.031, 172.014 429.256, 172.032 429.698 M 253.073 437.203 C 251.288 441.766, 248.966 446.988, 247.914 448.807 C 246.861 450.626, 246 452.527, 246 453.031 C 246 453.535, 244.516 456.997, 242.703 460.724 C 237.401 471.619, 237.016 470.803, 247.127 470.111 C 248.075 470.046, 249.651 467.914, 250.905 465 L 253.056 460 261 460 L 268.944 460 271.044 464.881 C 272.868 469.120, 273.602 469.836, 276.629 470.327 C 278.547 470.638, 280.939 470.580, 281.946 470.196 C 283.599 469.568, 282.936 467.560, 275.111 449.500 L 266.446 429.500 261.383 429.203 L 256.320 428.907 253.073 437.203 M 288 449.393 C 288 464.797, 288.306 469.898, 289.250 470.242 C 289.938 470.493, 292.169 470.494, 294.210 470.244 L 297.920 469.791 298.210 462.236 L 298.500 454.682 309.250 454.786 L 320 454.890 320 450.445 L 320 446 308.943 446 L 297.885 446 298.193 441.750 L 298.500 437.500 311.250 437.220 L 324 436.940 324 432.970 L 324 429 306 429 L 288 429 288 449.393 M 354.500 430.863 C 347.135 434.334, 341.966 442.416, 342.022 450.376 C 342.046 453.851, 345.194 461.451, 347.805 464.338 C 351.182 468.073, 357.044 470.195, 364.735 470.468 C 370.944 470.688, 372.952 470.330, 377.102 468.262 C 382.292 465.676, 385 462.003, 385 457.550 C 385 455.216, 384.640 455, 380.737 455 C 377.288 455, 376.286 455.426, 375.487 457.232 C 374.089 460.394, 370.342 461.968, 364.173 461.985 C 359.608 461.998, 358.428 461.582, 355.923 459.077 C 353.335 456.489, 353 455.459, 353 450.093 C 353 444.888, 353.390 443.595, 355.760 440.943 C 360.727 435.384, 372.445 436.092, 375.573 442.141 C 376.823 444.559, 377.665 445, 381.026 445 C 384.794 445, 385 444.841, 385 441.934 C 385 437.767, 383.587 435.438, 379.077 432.171 C 375.712 429.733, 374.260 429.378, 366.879 429.191 C 360.422 429.027, 357.582 429.411, 354.500 430.863 M 401 431.701 C 396.393 434.046, 395.054 435.381, 392.750 439.929 C 389.073 447.188, 389.086 453.023, 392.795 460.123 C 396.624 467.452, 402.886 470.706, 412.708 470.469 C 427.182 470.119, 434.447 463.111, 434.447 449.500 C 434.447 440.946, 432.672 437.233, 426.410 432.688 C 422.347 429.740, 421.101 429.380, 414.193 429.154 C 407.459 428.934, 405.814 429.252, 401 431.701 M 442 449.555 L 442 470.110 446.716 469.805 L 451.431 469.500 451.231 457.672 C 451.122 451.167, 451.411 445.992, 451.875 446.172 C 452.338 446.352, 457.334 451.788, 462.977 458.250 C 468.828 464.952, 474.045 470.048, 475.118 470.111 C 476.153 470.172, 478.012 470.273, 479.250 470.334 L 481.500 470.446 481.770 449.723 L 482.041 429 477.051 429 L 472.062 429 471.781 441.155 L 471.500 453.309 460.676 441.155 C 450.312 429.517, 449.685 429, 445.926 429 L 442 429 442 449.555 M 487 433 L 487 437 494.500 437 L 502 437 502 453.383 C 502 471.670, 501.760 471.112, 509.250 470.225 L 513 469.781 513 453.391 L 513 437 520.500 437 L 528 437 528 433 L 528 429 507.500 429 L 487 429 487 433 M 532.410 430.374 C 532.120 431.130, 532.259 434.617, 532.718 438.124 C 533.178 441.631, 533.248 449.900, 532.874 456.500 C 532.499 463.100, 532.487 468.797, 532.847 469.159 C 533.206 469.522, 535.750 469.972, 538.500 470.159 L 543.500 470.500 543.500 463 L 543.500 455.500 550.669 455.560 C 559.547 455.634, 561 456.671, 561 462.931 C 561 469.760, 562.514 471.345, 568.220 470.490 L 572.835 469.798 572.317 464.149 C 572.033 461.042, 570.972 456.753, 569.960 454.618 C 568.383 451.291, 568.320 450.537, 569.521 449.336 C 571.472 447.385, 572.420 441.454, 571.366 437.781 C 569.453 431.112, 563.324 429.059, 545.219 429.024 C 535.708 429.005, 532.818 429.310, 532.410 430.374 M 590.277 434.750 C 588.840 437.913, 587.570 440.954, 587.456 441.509 C 587.341 442.064, 584.677 448.139, 581.536 455.009 C 578.394 461.879, 575.590 468.063, 575.305 468.750 C 574.930 469.654, 576.192 470, 579.865 470 L 584.944 470 587.095 465 L 589.246 460 597.209 460 L 605.172 460 607.284 465 L 609.397 470 614.782 470 C 617.743 470, 620.017 469.609, 619.833 469.131 C 619.650 468.653, 615.716 459.428, 611.092 448.631 L 602.684 429 597.787 429 L 592.890 429 590.277 434.750 M 633 430.527 C 624.981 434.154, 621 440.584, 621 449.910 C 621 457.797, 624.084 463.611, 630.278 467.400 C 634.358 469.895, 636.116 470.332, 642.295 470.387 C 654.695 470.496, 661.760 466.419, 663.327 458.250 L 663.950 455 658.975 455 C 655.510 455, 654 455.402, 654 456.326 C 654 457.055, 652.958 458.630, 651.686 459.826 C 649.863 461.538, 648.148 462, 643.620 462 C 640.457 462, 637.003 461.537, 635.945 460.970 C 630.318 457.959, 629.293 445.253, 634.274 440.271 C 639.329 435.216, 652.135 436.705, 653.594 442.518 C 654.137 444.683, 654.770 445, 658.549 445 C 660.932 445, 663.135 444.590, 663.445 444.090 C 664.628 442.175, 661.364 435.584, 657.816 432.725 C 654.483 430.040, 653.288 429.718, 645.316 429.350 C 638.718 429.046, 635.619 429.342, 633 430.527 M 667 432.956 L 667 436.912 674.250 437.206 L 681.500 437.500 681.774 453.647 L 682.049 469.795 686.070 470.178 C 688.282 470.389, 690.509 470.304, 691.019 469.988 C 691.530 469.673, 692.072 462.234, 692.224 453.457 L 692.500 437.500 699.500 437.388 L 706.500 437.276 706.807 433.138 L 707.115 429 687.057 429 L 667 429 667 432.956 M 712.872 429.198 C 712.802 429.364, 712.672 438.576, 712.584 449.668 L 712.424 469.836 716.845 470.499 C 723.206 471.453, 724.015 470.237, 722.827 461.500 C 722.065 455.893, 722.374 435.687, 723.300 430.601 C 723.471 429.658, 713.259 428.283, 712.872 429.198 M 731.630 431.250 C 730.841 434.196, 730.821 466.369, 731.607 468.418 C 732.048 469.568, 733.575 470, 737.195 470 L 742.175 470 741.459 458 C 740.721 445.630, 741.261 443.774, 744.295 448.250 C 745.134 449.488, 747.098 451.893, 748.660 453.596 C 753.610 458.992, 757.414 463.348, 760.306 466.936 C 762.814 470.046, 763.559 470.385, 767.306 470.118 C 769.613 469.953, 771.693 469.628, 771.930 469.396 C 772.618 468.719, 772.614 430.994, 771.926 429.880 C 771.583 429.325, 769.321 429.012, 766.901 429.185 L 762.500 429.500 762.500 441.692 C 762.500 456.016, 763.738 456.214, 749.500 439.615 C 740.819 429.494, 740.353 429.120, 736.367 429.061 C 732.899 429.010, 732.136 429.363, 731.630 431.250 M 792.685 430.017 C 782.765 432.995, 775.468 447.618, 779.720 456 C 780.417 457.375, 780.990 459.010, 780.994 459.634 C 781.001 460.928, 787.758 467.265, 790.958 468.978 C 794.789 471.028, 807.027 470.940, 811.250 468.832 C 814.451 467.233, 815 467.182, 815 468.480 C 815 470.483, 820.799 470.917, 822 469.003 C 822.782 467.757, 821.591 448.470, 820.750 448.750 C 820.337 448.887, 815.725 449, 810.500 449 L 801 449 801 452.923 L 801 456.847 805.983 456.739 C 812.126 456.607, 813.247 457.566, 810.014 460.188 C 807.959 461.854, 806.438 462.134, 801.238 461.802 C 792.858 461.269, 789.851 458.505, 789.282 450.815 C 788.599 441.588, 793.036 437, 802.642 437 C 806.322 437, 807.707 437.553, 810.154 440 C 812.468 442.314, 814.051 443, 817.077 443 C 820.535 443, 821 442.720, 821 440.635 C 821 437.285, 817.350 433.063, 812.579 430.896 C 808.230 428.921, 797.862 428.463, 792.685 430.017 M 98.999 442.250 L 98.998 447.500 106.529 447.348 C 114.913 447.178, 117.255 445.984, 116.801 442.109 C 116.391 438.614, 112.805 437.033, 105.250 437.015 L 99 437 98.999 442.250 M 406.500 438.161 C 402.341 440.448, 401.045 443.235, 401.022 449.945 C 401.003 455.594, 401.332 456.737, 403.687 459.195 C 406.026 461.637, 407.125 462, 412.171 462 C 417.112 462, 418.433 461.585, 421.113 459.191 C 423.650 456.924, 424.339 455.427, 424.684 451.441 C 425.188 445.612, 422.852 440.203, 419 438.279 C 415.925 436.742, 409.195 436.678, 406.500 438.161 M 543.847 442.001 L 543.500 447.001 551.782 447.001 C 559.416 447, 560.129 446.827, 560.883 444.787 C 562.897 439.343, 559.633 437, 550.031 437 L 544.193 437 543.847 442.001 M 20.636 446.283 C 19.736 448.639, 19 450.889, 19 451.283 C 19 451.678, 21 452, 23.445 452 L 27.889 452 25.811 447 C 24.668 444.250, 23.404 442, 23.003 442 C 22.601 442, 21.536 443.928, 20.636 446.283 M 150.685 445.534 C 148.070 451.019, 148.421 452, 153 452 C 155.200 452, 157 451.812, 157 451.583 C 157 450.797, 153.072 442, 152.721 442 C 152.528 442, 151.612 443.590, 150.685 445.534 M 258.750 446.264 C 257.788 448.605, 257 450.854, 257 451.261 C 257 451.667, 258.800 452, 261 452 C 263.200 452, 265 451.678, 265 451.283 C 265 449.852, 261.712 442, 261.114 442.004 C 260.776 442.006, 259.712 443.923, 258.750 446.264 M 594.706 446.657 C 593.756 449.218, 593.162 451.496, 593.386 451.719 C 593.609 451.942, 595.619 451.985, 597.853 451.813 L 601.914 451.500 599.707 446.751 C 598.493 444.139, 597.260 442.001, 596.966 442.001 C 596.672 442, 595.655 444.095, 594.706 446.657" stroke="none" fill="#525464" fill-rule="evenodd"/></svg>